<?xml version="1.0" standalone="no"?>
<!DOCTYPE svg PUBLIC "-//W3C//DTD SVG 20010904//EN"
 "http://www.w3.org/TR/2001/REC-SVG-20010904/DTD/svg10.dtd">
<svg version="1.0" xmlns="http://www.w3.org/2000/svg"
 width="420.000000pt" height="398.000000pt" viewBox="0 0 420.000000 398.000000"
 preserveAspectRatio="xMidYMid meet">

<g transform="translate(0.000000,398.000000) scale(0.100000,-0.100000)"
fill="#000000" stroke="none">
<path d="M1977 3590 c-70 -12 -142 -51 -217 -115 -125 -108 -172 -120 -341
-89 -101 19 -179 10 -254 -27 -48 -24 -126 -98 -90 -85 40 15 141 36 170 36
70 0 236 -59 280 -100 17 -15 33 -18 95 -15 62 2 97 12 202 54 122 48 246 86
254 78 6 -6 -117 -103 -193 -153 -92 -61 -149 -78 -239 -72 -42 3 -81 11 -90
19 -9 8 -25 13 -35 11 -9 -2 -46 9 -81 24 -55 23 -73 26 -140 22 -65 -4 -85
-10 -133 -39 -181 -109 -379 -452 -445 -774 -38 -184 -35 -349 11 -560 59
-273 188 -505 394 -711 160 -159 297 -240 543 -323 160 -54 240 -64 489 -59
203 4 210 5 308 37 154 51 243 88 330 138 228 131 419 324 539 546 87 161 158
422 172 632 16 246 -73 568 -221 799 -85 133 -243 307 -361 398 -66 50 -189
128 -204 128 -12 0 -40 -54 -40 -78 0 -12 23 -35 63 -62 146 -101 303 -250
392 -372 53 -71 143 -247 180 -348 50 -140 65 -225 65 -365 0 -281 -33 -427
-146 -656 -68 -137 -79 -153 -174 -252 -125 -131 -336 -294 -356 -275 -3 4 9
27 28 53 183 255 222 352 222 560 0 95 -5 137 -22 199 -31 110 -91 219 -162
300 l-61 68 34 37 c18 20 63 67 99 103 106 106 147 210 140 353 l-3 40 -20
-27 c-11 -16 -28 -28 -38 -28 -9 0 -22 -5 -28 -11 -7 -7 -10 3 -8 35 2 50 27
88 51 79 20 -8 17 6 -10 41 -13 17 -48 45 -77 61 -47 26 -63 30 -129 29 -66
-1 -86 -6 -163 -43 -48 -22 -112 -61 -141 -85 -68 -55 -93 -64 -111 -39 -30
39 -49 90 -53 143 -6 76 17 105 89 113 28 4 54 9 57 12 3 3 9 36 13 73 4 38
17 89 30 114 22 46 22 47 3 74 -38 53 -44 70 -44 124 -1 145 -104 230 -285
236 -49 2 -112 -1 -138 -6z m210 -71 c37 -12 60 -36 47 -49 -5 -5 -32 -14 -59
-20 -28 -5 -123 -25 -213 -43 -110 -24 -164 -31 -169 -24 -3 6 12 27 34 47
106 94 236 126 360 89z m153 -109 c12 -24 20 -59 20 -91 0 -40 6 -60 25 -85
28 -36 31 -52 12 -59 -7 -3 -13 -28 -15 -63 -5 -91 -5 -92 -104 -106 -20 -3
-67 -49 -83 -82 -14 -30 -16 -52 -11 -111 4 -57 3 -73 -7 -73 -21 0 -92 66
-109 99 -20 42 -8 129 30 216 38 88 46 115 34 115 -5 0 -61 -49 -125 -109 -63
-60 -133 -118 -154 -129 -89 -45 -196 -51 -281 -15 -50 21 -38 -4 19 -40 34
-20 66 -30 134 -38 50 -6 95 -12 101 -14 8 -2 6 -27 -8 -82 -35 -143 -10 -287
76 -433 46 -80 156 -204 224 -255 l40 -30 -58 -62 c-64 -70 -112 -160 -130
-244 -19 -87 -9 -211 24 -289 l28 -64 -26 -23 c-42 -35 -146 -63 -240 -63
-145 0 -246 42 -339 138 -69 73 -96 129 -97 198 l0 51 55 7 c131 15 236 85
290 193 28 55 30 65 30 178 0 119 -8 175 -24 175 -5 0 -11 -17 -15 -37 -14
-87 -72 -135 -212 -176 -111 -32 -167 -67 -219 -138 -83 -112 -113 -257 -82
-389 21 -87 80 -226 129 -301 21 -34 37 -63 34 -66 -30 -30 -231 199 -336 382
-58 102 -126 307 -139 420 -41 343 25 637 202 907 104 159 235 291 291 291 33
0 125 -49 166 -88 88 -84 289 -70 433 29 64 44 185 165 224 223 43 64 143 173
158 173 8 0 24 -18 35 -40z m-347 -608 c25 -38 58 -79 75 -91 53 -37 143 -72
247 -96 55 -12 119 -28 143 -34 51 -14 116 -70 143 -124 20 -39 23 -93 4 -91
-5 0 -18 -10 -28 -23 -21 -26 -53 -30 -84 -8 -12 8 -78 44 -148 80 -120 62
-275 165 -275 183 0 5 -11 14 -25 20 -14 6 -25 9 -25 6 0 -13 47 -95 86 -151
53 -74 100 -114 217 -182 48 -29 87 -55 87 -59 0 -4 -38 -32 -83 -64 l-83 -56
-63 42 c-34 23 -91 68 -127 100 -125 112 -198 321 -165 479 15 71 40 137 52
137 4 0 28 -31 52 -68z m719 28 c15 -12 26 -30 26 -45 0 -31 -6 -31 -62 -1
-25 13 -51 26 -58 28 -10 4 -10 8 1 21 18 23 63 21 93 -3z m132 -1 c28 -22 35
-66 12 -75 -8 -3 -12 -12 -10 -19 9 -23 -14 -27 -26 -4 -7 11 -9 23 -7 25 3 3
-6 17 -19 31 -50 54 -9 88 50 42z m-244 -57 l25 -16 -25 -7 c-14 -4 -18 -8
-10 -9 10 -1 9 -4 -5 -9 -11 -5 -28 -5 -37 0 -9 5 -23 6 -31 3 -21 -8 -57 13
-51 30 14 35 84 39 134 8z m186 -96 c40 -40 44 -75 13 -126 -36 -59 -80 -110
-95 -110 -7 0 -29 24 -48 54 -19 30 -50 67 -70 82 -20 16 -36 34 -36 41 0 13
74 67 112 83 49 19 88 12 124 -24z m162 -113 c3 -17 -8 -29 -45 -52 -26 -17
-56 -31 -65 -31 -47 0 -21 57 40 90 45 24 66 22 70 -7z m-82 -125 c4 -6 0 -16
-9 -23 -9 -7 -13 -16 -9 -20 4 -5 2 -5 -5 -1 -6 3 -32 -4 -57 -16 -44 -21 -47
-21 -63 -5 -16 15 -16 18 -2 33 34 33 131 55 145 32z m-121 -114 c25 -26 -1
-44 -69 -50 -45 -4 -57 -2 -62 11 -17 43 94 76 131 39z m-119 -99 c11 -8 14
-15 7 -15 -7 0 -13 -7 -13 -15 0 -8 -7 -15 -16 -15 -8 0 -12 5 -9 10 5 7 -3 8
-22 3 -34 -9 -81 -9 -91 1 -4 4 4 16 17 27 28 23 99 25 127 4z m-155 -82 c11
-13 11 -17 1 -20 -6 -3 -10 -8 -8 -11 2 -4 -6 -7 -17 -7 -12 -1 -31 -4 -42 -8
-11 -3 -27 -2 -35 3 -13 9 -11 14 13 35 32 29 69 32 88 8z m219 -131 c146
-149 202 -357 149 -558 -24 -93 -104 -252 -159 -315 l-38 -44 26 75 c22 64 26
91 26 190 -1 63 -3 126 -6 140 -17 77 -30 110 -40 104 -7 -4 -8 -3 -4 4 4 6
-3 28 -14 49 l-21 38 6 -40 c3 -22 8 -49 11 -60 4 -16 3 -17 -5 -5 -12 16 -37
97 -45 142 -3 15 -34 71 -70 123 l-65 96 57 44 c31 25 62 45 69 45 6 0 14 6
16 13 4 9 6 9 6 -1 1 -7 -9 -17 -21 -22 -33 -13 -68 -46 -68 -62 0 -8 -5 -19
-12 -26 -9 -9 -7 -12 9 -12 12 0 23 4 25 8 2 5 31 25 66 47 58 35 80 65 48 65
-7 0 -19 7 -26 15 -10 12 -10 15 0 15 7 0 43 -31 80 -68z m-340 43 c0 -19 -51
-45 -90 -45 -47 0 -36 40 15 53 43 10 75 7 75 -8z m15 -32 c-28 -20 -41 -16
-20 7 10 11 22 17 28 13 6 -4 3 -12 -8 -20z m-128 -54 c11 -11 -5 -59 -20 -59
-5 0 -5 5 -1 11 3 6 -5 4 -19 -6 -31 -20 -71 -16 -75 7 -2 11 9 25 30 38 37
22 68 26 85 9z m-632 -62 c-35 -73 -98 -119 -227 -163 -75 -25 -82 -20 -53 35
23 46 69 77 152 105 43 14 91 35 108 46 16 10 31 17 33 15 2 -2 -4 -19 -13
-38z m552 -46 c6 -1 11 -10 10 -21 -3 -37 -137 -66 -137 -30 0 25 65 60 100
54 8 -1 20 -3 27 -3z m218 -55 c65 -92 85 -157 85 -280 0 -94 -2 -106 -32
-169 -39 -78 -101 -155 -176 -217 -40 -33 -56 -40 -62 -31 -4 8 -13 11 -19 7
-7 -5 -9 -1 -5 8 5 13 -1 16 -29 16 -20 0 -39 -5 -42 -10 -4 -6 -11 -8 -16 -4
-9 5 -106 -19 -139 -35 -8 -4 -32 -6 -52 -5 -21 2 -38 -1 -38 -6 0 -5 -6 -8
-12 -6 -7 3 -50 7 -95 10 -78 6 -82 5 -78 -14 5 -27 -12 -26 -81 5 -80 35
-175 106 -236 175 -51 58 -108 152 -108 178 0 7 -8 25 -17 39 -34 51 -28 280
6 259 5 -3 11 -33 15 -66 10 -84 33 -158 67 -206 45 -66 139 -152 204 -189
183 -101 440 -62 583 89 51 54 69 85 106 189 10 26 21 47 25 47 4 0 5 41 3 91
l-5 91 49 49 c26 27 49 49 51 49 1 0 23 -29 48 -64z m-290 -80 c10 -10 11 -16
2 -25 -6 -6 -15 -11 -20 -11 -5 0 -15 -7 -23 -15 -23 -23 -54 -19 -54 7 0 47
63 77 95 44z m-40 -126 c4 -6 11 -7 17 -4 6 4 9 3 7 -2 -27 -64 -45 -94 -55
-94 -28 0 -34 83 -6 99 22 13 29 13 37 1z m582 -72 c-3 -8 -6 -5 -6 6 -1 11 2
17 5 13 3 -3 4 -12 1 -19z m-33 -183 c3 -8 1 -15 -4 -15 -6 0 -10 7 -10 15 0
8 2 15 4 15 2 0 6 -7 10 -15z m50 -36 c-3 -5 -11 -9 -17 -9 -7 0 -6 4 3 10 10
6 11 10 3 10 -7 0 -13 5 -13 11 0 8 5 8 15 -1 8 -7 12 -16 9 -21z m32 3 c-17
-16 -18 -16 -5 5 7 12 15 20 18 17 3 -2 -3 -12 -13 -22z m-86 -11 c0 -5 -7
-11 -14 -14 -10 -4 -13 -1 -9 9 6 15 23 19 23 5z m-410 -205 c0 -3 -4 -8 -10
-11 -5 -3 -10 -1 -10 4 0 6 5 11 10 11 6 0 10 -2 10 -4z m-175 -16 c-3 -5 -14
-10 -23 -9 -14 0 -13 2 3 9 27 11 27 11 20 0z m135 -4 c-4 -4 -16 -4 -26 2
-16 9 -14 10 8 9 15 -1 23 -6 18 -11z m-30 -10 c0 -2 -7 -7 -16 -10 -8 -3 -12
-2 -9 4 6 10 25 14 25 6z m-163 -12 c-3 -3 -12 -4 -19 -1 -8 3 -5 6 6 6 11 1
17 -2 13 -5z m-214 -11 c-7 -2 -21 -2 -30 0 -10 3 -4 5 12 5 17 0 24 -2 18 -5z"/>
<path d="M2277 3303 c-4 -3 2 -13 13 -20 16 -12 24 -12 35 -3 8 7 12 16 9 21
-6 10 -48 12 -57 2z"/>
</g>
</svg>
